<?xml version="1.0" encoding="utf-8"?>
<!-- Generator: Adobe Illustrator 16.0.0, SVG Export Plug-In . SVG Version: 6.00 Build 0)  -->
<!DOCTYPE svg PUBLIC "-//W3C//DTD SVG 1.1//EN" "http://www.w3.org/Graphics/SVG/1.1/DTD/svg11.dtd">
<svg version="1.1" id="Layer_1" xmlns="http://www.w3.org/2000/svg" xmlns:xlink="http://www.w3.org/1999/xlink" x="0px" y="0px"
	 width="1080px" height="1080px" viewBox="0 0 1080 1080" enable-background="new 0 0 1080 1080" xml:space="preserve">
<g>
	<path fill="#fff" d="M3.802,425.729c357.465,0,714.93,0,1072.395,0c0,76.182,0,152.362,0,228.543c-357.465,0-714.93,0-1072.395,0
		C3.802,578.091,3.802,501.91,3.802,425.729z M671.82,445.541c-0.733,0.744-1.469,1.486-2.203,2.229
		c-4.391,3.655-8.778,7.311-13.168,10.963c-0.824-0.916-1.563-2.064-3.098-1.109c0.702,1.521,2.049,0.928,3.184,1.004
		c-23.334,22.68-43.047,48.016-55.084,78.496c-5.93,15.014-13.631,29.92-8.723,47.25c1.539,5.429,3.353,11.429-0.015,17.115
		l0.136-0.117c-8.062-8.523-5.672-19.918-7.8-31.357c-4.399,25.004,1.101,44.99,22.05,58.714
		c12.826,8.404,27.184,12.093,42.445,13.011c36.936,2.223,71.803-6.56,105.792-19.748c10.446-4.051,21.788-6.34,30.623-13.988
		c0.526-0.188,1.054-0.375,1.015-0.361c0.051-0.027-0.422,0.238-0.895,0.504c-2.543,0.124-5.398-0.466-7.58,0.489
		c-14.529,6.358-30.333,8.084-45.292,12.817l0.11-0.138c-3.912-1.849-7.823-0.774-11.832-0.249
		c-21.883,2.869-43.885,4.426-65.313-2.148c-12.382-3.799-25.521-6.271-35.066-16.805c-14.59-16.104-18.061-34.467-13.342-55.095
		c7.818-34.168,29.057-60.194,51.543-85.501c3.818-4.296,9.102-7.549,10.182-13.867c0.75-0.721,1.5-1.443,2.25-2.166L671.82,445.541
		z M770.753,608.213c-0.292,0.184-0.584,0.365-0.876,0.549c0.255-0.223,0.51-0.445,0.766-0.669L770.753,608.213z M707.025,566.303
		c2.129-0.796,3.584-2.253,4.336-4.404c17.418-5.439,21.035-4.326,31.563,9.555c2.63,3.467,5.392,6.834,8.093,10.248
		c0.862,4.703,2.985,4.428,5.23,1.059c3.339-5.016,7.04-9.891,8.35-15.984c11.729-17.744,18.939-37.094,18.819-58.488
		c-0.081-14.076-8.929-22.172-21.251-20.674c-5.505,0.668-11.073,1.746-17.046,5.271c23.166,3.495,29.538,10.166,29.834,29.962
		c0.088,5.882-0.493,11.639-2.491,17.262c-3.049,8.58-5.85,17.252-8.754,25.883c-4.864,3.537-5.311,10.483-10.581,13.707
		c-2.293-7.065-6.461-13.136-10.89-18.894c-10.049-13.056-20.43-12.497-30.729,1.251c-2.543,0.363-4.003,1.814-4.38,4.354
		L707.025,566.303z M528.987,568.47c1.928-1.567,2.479-3.463,0.743-5.862c-0.205,1.998-0.41,3.997-0.615,5.995L528.987,568.47z
		 M478.509,570.656l-0.116,0.108c-0.058-2.991-0.116-5.983-0.174-8.976c1.738-0.129,3.477-0.256,5.215-0.385
		c-0.099-0.4-0.199-0.801-0.297-1.201c-1.598,0.572-3.196,1.146-4.794,1.72C475.656,564.887,473.779,567.834,478.509,570.656z
		 M506.952,570.781c0.439,0.199,0.879,0.397,0.965,0.437c-0.112-0.031-0.597-0.167-1.082-0.304c-0.084-3.24,0.413-6.321,2.445-8.985
		c1.965,0.931,3.929,1.858,6.137,2.903c-0.814-4.221-2.727-5.118-6.002-2.771C504.744,563.881,504.211,566.867,506.952,570.781z
		 M498.043,566.214c2.138-2.453,2.642-4.813-1.317-5.458c-3.637-0.592-4.544,1.15-5.264,8.632c3.532-5.158,3.532-5.158,6.769-3.054
		c-1.527,1.525-2.563,2.964,1.166,4.045C498.839,568.662,498.441,567.439,498.043,566.214z M168.557,562.002
		c-3.137-0.309-6.554,1.117-9.299-1.411c-1.462-3.41,3.887-5.47,1.728-8.955c-0.422,0.058-0.81,0-1.047,0.162
		c-0.892,0.606-1.802,1.212-2.586,1.944c-7.301,6.816-10.417,6.693-15.97-1.569c-6.565-9.771-6.042-20.661-3.724-31.542
		c1.555-7.297,4.85-13.492,11.997-16.157c5.907,2.64,5.328,9.649,9.922,12.735c3.109-4.678-0.396-9.383,2.079-13.514
		c4.035-2.613,7.582,0.481,11.332,1.129c5.227,6.58,5.192,13.526,3.148,21.526c-1.924,7.528-5.167,15.079-4.336,23.11
		c21.713,4.857,34.616-2.973,35.323-20.873c0.316-8.02-3.289-12.313-11.331-13.115c-4.605-0.46-9.494,1.221-14.037-1.671
		c-1.449-4.373,0.642-12.651-8.896-8.812c-3.656-5.834-14.143-2.74-14.414-12.158c-6.721,2.84-6.721,2.84-16.176,0.24
		c-15.249-4.191-31.196,1.455-40.6,14.375c-10.415,14.312-10.702,34.877-0.689,49.293c8.573,12.342,24.484,18.711,39.661,13.707
		c9.219-3.041,18.402-6.113,27.792-8.582c0.462-0.205,0.925-0.41,1.028-0.455C169.38,561.467,168.969,561.734,168.557,562.002z
		 M783.906,630c1.049-0.293,2.304-0.309,3.117-0.916c34.289-25.53,62.803-55.982,79.998-95.719
		c4.344-10.039,7.426-20.594,7.666-31.834c0.881-41.14-22.465-65.451-63.64-67.875c-38.918-2.289-75.53,6.633-111.589,19.674
		c-8.779,3.176-17.406,6.531-24.464,13.17c15.354-3.309,30.685-6.297,45.933-9.594c30.233-6.537,60.022-7.281,89.873,2.334
		c30.676,9.879,46.316,36.088,39.104,67.541c-5.867,25.58-19.582,47.18-35.541,67.424c-9.697,12.299-20.197,23.968-30.338,35.92
		L783.906,630z M740.041,501.785c-6.734-7.715-15.245-11.15-24.702-12.121c-15.097-1.547-26.944,5.781-30.784,20.519
		c-6.58,25.259,1.352,47.862,13.918,70.002c2.439-2.542,1.504-4.256,1.039-5.94c-4.207-15.23-6.412-30.682-5.488-46.535
		c1.025-17.598,11.408-27.536,29.016-27.213C728.712,500.6,734.373,501.339,740.041,501.785z M242.749,549.132
		c13.926,4.593,10.36-8.343,15.383-13.479c1.902,3.908,3.657,7.418,5.324,10.967c1.704,3.627,4.813,4.127,8.286,3.855
		c2.96-0.23,4.56-1.887,5.119-4.785c1.849-9.588,5.065-18.922,5.795-29.08c-13.934-4.644-9.813,8.936-14.349,13.59
		c-3.26-2.875-3.996-7.013-5.821-10.492c-1.836-3.5-4.524-4.287-8.107-4.193c-3.894,0.102-4.787,2.752-5.449,5.703
		C246.87,530.388,244.861,539.57,242.749,549.132z M489.65,536.871c3.961,7.58,4.939,17.938,16.095,12.49
		c2.216-6.018-4.295-10.457-0.794-16.178c8.46-13.826,6.381-17.459-9.577-17.725c-3.276-0.055-6.555,0.009-9.832,0.076
		c-2.814,0.058-4.862,1.168-5.612,4.137c-2.46,9.73-4.979,19.447-5.859,29.359C486.797,554.623,484.409,542.17,489.65,536.871z
		 M524.268,539.709c2.542-5.073,6.64-3.391,9.95-3.648c4.115-0.322,8.229-0.29,7.104-6.225c-4.207-2.879-9.719,0.332-13.446-3.371
		c3.691-7.333,16.547,2.113,18.646-10.954c-8.891,0-16.146,0.043-23.402-0.021c-3.376-0.029-5.647,1.281-6.303,4.719
		c-1.83,9.572-5.54,18.836-5.403,29.824c8.421,1.162,16.373,0.98,24.326,0.41c2.991-0.215,4.693-2.037,4.448-5.101
		c-0.228-2.831-2.51-3.039-4.756-3.408C531.979,541.369,528.137,543.164,524.268,539.709z M239.531,529.678
		c-5.144-2.432-10.312,0.172-14.342-2.611c3.325-8.826,17.035,2.526,18.223-10.662c-7.995-1.838-15.604-0.785-23.133-0.91
		c-3.426-0.058-5.215,1.842-5.941,5.188c-2.064,9.514-5.051,18.855-5.667,28.6c18.829,3.994,26.716,2.365,29.124-5.762
		c-4.31-4.109-11.511,1.125-15.55-4.146C225.852,531.609,238.059,541.617,239.531,529.678z M469.403,548.609
		c0.393-8.83-2.208-17.572-3.498-26.464c-0.424-2.917-0.609-6.149-4.475-6.438c-3.506-0.264-7.538-1.444-9.934,2.445
		c-6.211,10.088-12.267,20.273-18.622,30.815c4.688,2.269,8.123,2.515,10.613,0.19c5.708-5.33,10.63-6.578,16.438,0.07
		C462.086,551.701,465.964,551.234,469.403,548.609z M311.225,548.164c3.994,3.311,7.597,3.522,10.947,0.379
		c5.132-4.816,9.696-5.707,14.616,0.34c2.06,2.531,5.366,2.201,8.105,0.963c2.927-1.322,2.56-4.311,2.006-6.702
		c-2.09-9.032-1.126-18.762-5.384-26.843c-7.29-2.207-11.776-0.064-15.081,6.02C321.766,530.912,316.539,539.199,311.225,548.164z
		 M413.477,540.474c-2.055-5.071-1.163-9.913,2.475-14.007c4.039-4.547,7.633-0.958,11.584,0.809
		c2.527,1.129,5.735,0.566,7.762-2.105c-2.859-9.127-6.862-11.387-17.078-9.732c-10.058,1.629-17.262,10.869-17.518,22.031
		c-0.183,8.011,3.876,12.148,11.389,13.436c9.285,1.59,16.746-2.916,19.761-11.832C425.031,531.449,420.884,545.002,413.477,540.474
		z M319.046,516.33c-8.682-1.799-17.415-0.625-26.08-0.83c-6.342-0.15-6.796,3.699-6.055,7.986c2.754,2.437,6.693,0.225,8.067,3.76
		c-0.134,7.33-3.727,14.109-3.123,21.201c2.771,2.58,5.91,2.918,8.377,1.289c4.067-2.689,3.412-7.777,4.48-11.867
		c1.609-6.156,1.003-13.272,10.687-13.43C319.539,524.371,319.15,519.949,319.046,516.33z M368.461,516.01
		c-4.446-0.082-9.147-2.396-10.616,3.098c-2.658,9.934-5.975,19.865-5.826,30.279c19.174,3.503,24.472,2.229,27.051-6.169
		c-3.827-3.524-9.426,0.093-13.67-3.554C364.64,532.27,368.938,525.222,368.461,516.01z M544.807,564.173
		c-7.2-4.5-7.2-4.5-8.37,4.59C537.278,564,540.244,562.762,544.807,564.173z M521.285,567.484c1.161-1.328,1.589-2.613-0.109-4.076
		C520.44,565.025,520.131,566.302,521.285,567.484z M178.398,554.891c-0.296,0.163-0.592,0.326-0.89,0.489
		c0.303,0.469,0.565,0.976,0.94,1.377c0.074,0.079,0.582-0.247,0.889-0.388C179.024,555.877,178.713,555.383,178.398,554.891z
		 M485.1,567.851l0.071-0.64l-0.674,0.256L485.1,567.851z"/>
	<path d="M784.025,630.125c10.141-11.952,20.641-23.621,30.338-35.92c15.959-20.244,29.673-41.844,35.541-67.424
		c7.213-31.451-8.428-57.662-39.104-67.541c-29.85-9.615-59.639-8.871-89.873-2.334c-15.248,3.297-30.578,6.285-45.933,9.594
		c7.058-6.639,15.685-9.994,24.464-13.17c36.059-13.041,72.671-21.963,111.589-19.674c41.175,2.424,64.521,26.734,63.64,67.875
		c-0.24,11.24-3.322,21.795-7.666,31.834c-17.195,39.736-45.709,70.188-79.998,95.719c-0.813,0.606-2.068,0.625-3.117,0.916
		L784.025,630.125z"/>
	<path d="M785.96,608.002c-8.835,7.646-20.177,9.938-30.623,13.988c-33.989,13.188-68.856,21.971-105.792,19.748
		c-15.262-0.918-29.62-4.606-42.445-13.011c-20.949-13.723-26.449-33.71-22.05-58.714c2.128,11.438-0.262,22.833,7.8,31.357
		c0.217,0.539,0.434,1.078,0.426,1.058c0.02,0.03-0.271-0.455-0.562-0.94c3.367-5.687,1.554-11.687,0.015-17.115
		c-4.908-17.33,2.793-32.236,8.723-47.25c12.039-30.48,31.75-55.816,55.084-78.496l-0.086,0.105
		c4.39-3.652,8.777-7.308,13.168-10.963l-0.125-0.119c-1.081,6.318-6.364,9.57-10.182,13.867
		c-22.486,25.307-43.727,51.333-51.543,85.501c-4.72,20.628-1.25,38.991,13.342,55.095c9.545,10.535,22.685,13.006,35.065,16.805
		c21.427,6.574,43.429,5.018,65.312,2.148c4.01-0.525,7.92-1.6,11.834,0.25c0.504,0.233,1.012,0.469,0.908,0.42
		c0.092,0.025-0.463-0.129-1.02-0.283c14.958-4.733,30.762-6.459,45.292-12.817c2.181-0.955,5.037-0.364,7.58-0.489L785.96,608.002z
		 M641.173,621.271c-1.015-0.545-1.823-1.874-4.298-0.139c2.154,0,3.281,0,4.408,0c-0.045,0.815-0.092,1.632-0.137,2.448
		c-2.674,0.824-6.008-0.166-8.851,2.486c4.661,2.227,7.206,1.143,8.69-2.652c1.095-0.275,2.863,0.886,2.978-1.262
		C643.977,621.91,642.148,621.568,641.173,621.271z M603.636,592.891c-0.657-2.615-0.808-5.475-3.411-7.553
		c-1.139,3.931,1.293,5.637,3.547,7.432c0.474,3.389,1.682,6.417,4.297,8.754c0.48,0.27,0.961,0.541,0.901,0.506
		c0.05,0.019-0.483-0.177-1.016-0.373C609.602,597.216,606.807,594.961,603.636,592.891z M619.094,625.604
		c2.208,0.464,3.456,3.894,6.538,2.149c-1.149-4.204-3.521-3.961-6.416-2.02L619.094,625.604z M653.027,625.09
		c24.012,12.828,47.602,5.113,71.233-0.526C700.559,626.762,676.811,626.771,653.027,625.09z M600.865,612.955
		c2.007,4.07,3.49,6.149,6.85,6.676C607.561,616.203,605.963,614.307,600.865,612.955z M650.212,633.281
		c2.772,0.569,4.405,0.35,5.595-2.613C653.563,630.713,651.656,629.714,650.212,633.281z M624.268,615.889
		c2.116,1.167,3.383,1.342,4.531-0.047C627.622,614.798,626.398,614.492,624.268,615.889z M615.002,615.427
		c0.143-0.304,0.455-0.667,0.378-0.897c-0.073-0.219-0.556-0.302-0.856-0.443c-0.144,0.303-0.457,0.666-0.377,0.893
		C614.223,615.199,614.699,615.283,615.002,615.427z"/>
	<path d="M168.435,561.867c-9.39,2.469-18.573,5.541-27.792,8.582c-15.177,5.004-31.088-1.365-39.661-13.707
		c-10.013-14.416-9.726-34.981,0.689-49.293c9.404-12.92,25.351-18.566,40.6-14.375c9.455,2.6,9.455,2.6,16.176-0.24
		c0.271,9.418,10.758,6.324,14.414,12.158l0.129-0.166c-3.75-0.647-7.297-3.742-11.332-1.131c-2.475,4.133,1.03,8.838-2.079,13.514
		c-4.594-3.086-4.015-10.096-9.922-12.734c-7.146,2.666-10.442,8.859-11.997,16.157c-2.318,10.88-2.841,21.771,3.724,31.542
		c5.553,8.263,8.669,8.386,15.97,1.57c0.784-0.733,1.694-1.34,2.586-1.945c0.237-0.162,0.625-0.104,1.047-0.162
		c2.159,3.486-3.19,5.545-1.728,8.955c2.745,2.527,6.162,1.104,9.299,1.41L168.435,561.867z M133.506,551.119
		c-6.006-5.09-6.054-12.151-6.197-19.108c-0.281-13.722,8.594-22.474,18.003-30.929c-13.222-6.762-25.09-4.278-31.664,7.35
		c-8.057,14.251-8.433,29.498-1.22,44.188c5.703,11.617,20.612,15.787,31.033,9.562c-3.923-3.249-8.628-5.767-10.053-11.167
		L133.506,551.119z"/>
	<path d="M740.041,501.785c-5.667-0.446-11.329-1.186-17.001-1.289c-17.606-0.322-27.99,9.615-29.017,27.213
		c-0.924,15.854,1.281,31.304,5.49,46.535c0.465,1.685,1.399,3.398-1.039,5.94c-12.568-22.14-20.498-44.743-13.92-70.002
		c3.84-14.737,15.688-22.065,30.785-20.519C724.795,490.635,733.307,494.07,740.041,501.785z"/>
	<path d="M172.86,504.992c9.537-3.84,7.447,4.438,8.896,8.812c4.543,2.892,9.432,1.21,14.037,1.671
		c8.042,0.805,11.647,5.098,11.331,13.115c-0.707,17.9-13.609,25.73-35.323,20.873c-0.831-8.031,2.412-15.581,4.336-23.11
		c2.044-8,2.078-14.948-3.148-21.526L172.86,504.992z M184.396,541.181c8.136,0.438,9.935-3.873,10.461-9.317
		c0.241-2.496,0.644-5.459-2.574-6.384c-4.066-1.167-4.868,2.052-5.581,4.919C185.925,533.527,185.343,536.703,184.396,541.181z"/>
	<path d="M242.749,549.132c2.113-9.562,4.122-18.744,6.18-27.915c0.662-2.951,1.555-5.602,5.449-5.703
		c3.583-0.092,6.271,0.693,8.107,4.193c1.825,3.479,2.562,7.617,5.821,10.492c4.537-4.654,0.415-18.233,14.349-13.59
		c-0.729,10.157-3.946,19.491-5.795,29.079c-0.559,2.897-2.158,4.556-5.119,4.786c-3.473,0.271-6.582-0.229-8.286-3.855
		c-1.667-3.549-3.422-7.059-5.324-10.967C253.108,540.789,256.674,553.725,242.749,549.132z"/>
	<path d="M489.65,536.871c-5.241,5.297-2.853,17.752-15.578,12.16c0.88-9.912,3.398-19.629,5.859-29.359
		c0.75-2.969,2.797-4.079,5.612-4.137c3.277-0.067,6.556-0.131,9.832-0.076c15.958,0.266,18.037,3.898,9.577,17.725
		c-3.501,5.721,3.01,10.16,0.794,16.178C494.589,554.811,493.611,544.451,489.65,536.871z M497.63,525.029
		c-3.496-2.16-6.115-2.992-7.555,2.26C493.376,529.164,495.859,529.477,497.63,525.029z"/>
	<path d="M524.268,539.709c3.869,3.455,7.711,1.66,11.162,2.228c2.247,0.369,4.529,0.578,4.756,3.408
		c0.246,3.063-1.457,4.886-4.448,5.101c-7.953,0.57-15.905,0.752-24.326-0.41c-0.137-10.988,3.573-20.252,5.403-29.824
		c0.656-3.438,2.926-4.748,6.303-4.719c7.256,0.063,14.513,0.021,23.404,0.021c-2.1,13.067-14.956,3.621-18.646,10.954
		c3.727,3.701,9.24,0.492,13.445,3.372c1.125,5.935-2.987,5.899-7.104,6.224C530.907,536.32,526.81,534.636,524.268,539.709z"/>
	<path d="M239.531,529.678c-1.472,11.941-13.679,1.932-17.286,9.695c4.039,5.272,11.24,0.039,15.549,4.147
		c-2.407,8.126-10.293,9.755-29.123,5.761c0.616-9.744,3.602-19.086,5.667-28.6c0.727-3.344,2.515-5.245,5.941-5.188
		c7.528,0.125,15.138-0.93,23.133,0.91c-1.188,13.188-14.897,1.836-18.223,10.662C229.219,529.849,234.387,527.244,239.531,529.678z
		"/>
	<path d="M469.403,548.609c-3.439,2.625-7.318,3.092-9.478,0.619c-5.807-6.646-10.729-5.398-16.438-0.07
		c-2.49,2.324-5.925,2.078-10.613-0.19c6.355-10.542,12.411-20.728,18.622-30.815c2.396-3.891,6.428-2.709,9.934-2.445
		c3.865,0.289,4.051,3.521,4.475,6.438C467.196,531.037,469.796,539.779,469.403,548.609z M455.107,530.758
		c-1.992,1.691-3.152,3.25-0.72,6.324C456.344,534.763,457.626,533.226,455.107,530.758z"/>
	<path d="M311.225,548.164c5.313-8.965,10.541-17.252,15.209-25.844c3.305-6.084,7.791-8.227,15.081-6.02
		c4.258,8.081,3.294,17.811,5.384,26.843c0.554,2.392,0.921,5.38-2.006,6.702c-2.739,1.236-6.045,1.568-8.105-0.963
		c-4.92-6.045-9.483-5.156-14.616-0.34C318.822,551.687,315.219,551.475,311.225,548.164z M334.134,529.449
		c-2.978,1.596-4.122,3.59-2.95,6.971C335.768,535.449,335.251,532.761,334.134,529.449z"/>
	<path d="M763.71,565.99c2.905-8.631,5.705-17.303,8.754-25.883c1.998-5.623,2.579-11.38,2.491-17.262
		c-0.295-19.796-6.668-26.467-29.834-29.962c5.973-3.524,11.541-4.601,17.046-5.271c12.323-1.498,21.17,6.598,21.251,20.674
		c0.12,21.395-7.089,40.744-18.818,58.488C764.302,566.514,764.005,566.252,763.71,565.99z"/>
	<path d="M413.477,540.474c7.407,4.526,11.554-9.024,18.375-1.405c-3.015,8.918-10.476,13.426-19.761,11.836
		c-7.512-1.287-11.571-5.426-11.389-13.437c0.255-11.163,7.459-20.401,17.518-22.031c10.216-1.655,14.219,0.604,17.078,9.731
		c-2.027,2.673-5.235,3.236-7.762,2.105c-3.951-1.766-7.546-5.354-11.584-0.808C412.314,530.562,411.422,535.402,413.477,540.474z"
		/>
	<path d="M319.046,516.33c0.104,3.619,0.492,8.041-3.646,8.108c-9.684,0.158-9.078,7.274-10.687,13.431
		c-1.068,4.088-0.413,9.178-4.48,11.867c-2.467,1.631-5.605,1.291-8.377-1.289c-0.604-7.093,2.988-13.871,3.123-21.201
		c-1.374-3.535-5.313-1.323-8.067-3.76c-0.741-4.287-0.287-8.138,6.055-7.986C301.631,515.705,310.365,514.531,319.046,516.33z"/>
	<path d="M368.461,516.01c0.478,9.212-3.821,16.261-3.061,23.656c4.244,3.646,9.843,0.029,13.667,3.566
		c-2.577,8.383-7.874,9.658-27.048,6.155c-0.148-10.415,3.168-20.347,5.826-30.278C359.313,513.613,364.014,515.928,368.461,516.01z
		"/>
	<path d="M751.018,581.701c-2.701-3.414-5.461-6.781-8.092-10.248c-10.529-13.881-14.146-14.994-31.563-9.555l0.147,0.156
		c10.3-13.749,20.681-14.309,30.728-1.251c4.43,5.758,8.598,11.827,10.891,18.894l0.152-0.25c-0.813,0.813-1.627,1.627-2.438,2.439
		L751.018,581.701z"/>
	<path d="M764.6,566.775c-1.311,6.094-5.012,10.969-8.351,15.983c-2.245,3.371-4.368,3.644-5.231-1.058l-0.175,0.185
		c0.812-0.813,1.625-1.627,2.438-2.44l-0.152,0.25c5.271-3.222,5.717-10.168,10.581-13.705
		C764.005,566.252,764.302,566.514,764.6,566.775z"/>
	<path d="M544.807,564.173c-4.563-1.411-7.529-0.173-8.37,4.59C537.607,559.674,537.607,559.674,544.807,564.173z"/>
	<path d="M498.23,566.334c-3.236-2.104-3.236-2.104-6.769,3.054c0.72-7.481,1.627-9.224,5.264-8.632
		c3.959,0.645,3.455,3.005,1.317,5.458L498.23,566.334z"/>
	<path d="M509.415,562.062c3.276-2.349,5.188-1.452,6.002,2.771c-2.208-1.045-4.172-1.973-6.137-2.903L509.415,562.062z"/>
	<path d="M506.952,570.781c-2.742-3.912-2.208-6.899,2.463-8.719l-0.134-0.134c-2.032,2.664-2.529,5.746-2.445,8.985
		L506.952,570.781z"/>
	<path d="M478.219,561.789c0.058,2.994,0.116,5.984,0.174,8.977l0.116-0.109c-4.73-2.822-2.853-5.77-0.167-8.731L478.219,561.789z"
		/>
	<path d="M529.115,568.602c0.205-1.998,0.41-3.997,0.615-5.994c1.735,2.398,1.185,4.295-0.743,5.861L529.115,568.602z"/>
	<path d="M521.276,567.486c-1.145-1.185-0.836-2.461-0.101-4.078C522.874,564.871,522.445,566.156,521.276,567.486z"/>
	<path d="M178.4,554.89c0.313,0.493,0.625,0.987,0.937,1.479c-0.307,0.141-0.814,0.467-0.889,0.388
		c-0.375-0.401-0.637-0.908-0.94-1.378C177.806,555.218,178.102,555.055,178.4,554.89z"/>
	<path d="M478.342,561.924c1.598-0.573,3.197-1.146,4.794-1.721c0.099,0.4,0.199,0.801,0.297,1.201
		c-1.738,0.129-3.477,0.258-5.215,0.385L478.342,561.924z"/>
	<path d="M498.043,566.214c0.398,1.226,0.796,2.45,1.353,4.165c-3.729-1.08-2.693-2.518-1.166-4.043L498.043,566.214z"/>
	<path d="M707.128,566.41c0.378-2.541,1.839-3.994,4.382-4.355l-0.148-0.157c-0.752,2.151-2.207,3.608-4.336,4.405L707.128,566.41z"
		/>
	<path d="M656.535,458.625c-1.133-0.075-2.481,0.517-3.184-1.002c1.533-0.955,2.272,0.191,3.098,1.109L656.535,458.625z"/>
	<polygon points="485.1,567.851 484.498,567.468 485.171,567.211 	"/>
	<path d="M506.836,570.914c0.485,0.136,0.97,0.271,1.082,0.304c-0.086-0.039-0.526-0.237-0.965-0.437L506.836,570.914z"/>
	<path d="M786.08,608.145c0.472-0.266,0.943-0.531,0.895-0.504c0.039-0.014-0.488,0.174-1.015,0.361L786.08,608.145z"/>
	<path d="M770.643,608.093c-0.256,0.224-0.511,0.446-0.766,0.669c0.292-0.184,0.585-0.366,0.876-0.549L770.643,608.093z"/>
	<path d="M168.557,562.002c0.412-0.268,0.823-0.535,0.906-0.59c-0.103,0.045-0.565,0.25-1.028,0.455L168.557,562.002z"/>
	<path d="M707.025,566.303c0,0,0.104,0.105,0.104,0.105C707.128,566.41,707.025,566.303,707.025,566.303z"/>
	<path d="M528.987,568.47l0.128,0.133L528.987,568.47z"/>
	<path d="M478.393,570.765l0.116-0.108L478.393,570.765z"/>
	<path d="M770.753,608.213l-0.11-0.12L770.753,608.213z"/>
	<path d="M669.617,447.769c0.734-0.743,1.47-1.485,2.203-2.229l-0.08-0.055c-0.75,0.721-1.5,1.443-2.25,2.166L669.617,447.769z"/>
	<path d="M671.82,445.541l-0.08-0.057L671.82,445.541z"/>
	<path d="M783.906,630l0.119,0.125L783.906,630z"/>
	<path fill="none" d="M653.027,625.09c23.783,1.681,47.531,1.672,71.233-0.526C700.629,630.203,677.039,637.918,653.027,625.09z"/>
	<path fill="none" d="M600.865,612.955c5.099,1.352,6.695,3.248,6.85,6.676C604.355,619.105,602.872,617.025,600.865,612.955z"/>
	<path fill="none" d="M640.984,623.414c-1.483,3.795-4.028,4.879-8.689,2.652c2.844-2.652,6.176-1.662,8.85-2.486L640.984,623.414z"
		/>
	<path fill="none" d="M619.216,625.734c2.896-1.939,5.265-2.185,6.416,2.021c-3.083,1.744-4.331-1.686-6.538-2.15L619.216,625.734z"
		/>
	<path fill="none" d="M650.212,633.281c1.444-3.567,3.351-2.568,5.595-2.613C654.617,633.629,652.984,633.85,650.212,633.281z"/>
	<path fill="none" d="M608.07,601.523c-2.616-2.337-3.824-5.365-4.299-8.754l-0.135,0.122c3.17,2.069,5.965,4.324,4.319,8.767
		L608.07,601.523z"/>
	<path fill="none" d="M603.771,592.77c-2.254-1.795-4.685-3.501-3.545-7.432c2.603,2.078,2.752,4.938,3.41,7.553L603.771,592.77z"/>
	<path fill="none" d="M624.268,615.889c2.131-1.396,3.354-1.091,4.531-0.047C627.65,617.23,626.384,617.056,624.268,615.889z"/>
	<path fill="none" d="M615.002,615.427c-0.303-0.144-0.779-0.228-0.855-0.449c-0.08-0.226,0.233-0.59,0.377-0.894
		c0.301,0.144,0.783,0.227,0.856,0.445C615.457,614.76,615.143,615.123,615.002,615.427z"/>
	<path fill="none" d="M641.173,621.271c0.974,0.298,2.804,0.64,2.79,0.882c-0.115,2.147-1.883,0.986-2.979,1.262l0.16,0.166
		c0.047-0.815,0.092-1.633,0.139-2.448L641.173,621.271z"/>
	<path fill="none" d="M641.283,621.133c-1.125,0-2.254,0-4.408,0c2.475-1.734,3.283-0.406,4.298,0.139L641.283,621.133z"/>
	<path fill="none" d="M592.713,601.488c0.291,0.484,0.581,0.971,0.563,0.939c0.008,0.021-0.211-0.518-0.428-1.057L592.713,601.488z"
		/>
	<path fill="none" d="M607.955,601.658c0.533,0.194,1.066,0.391,1.016,0.373c0.061,0.032-0.421-0.238-0.9-0.506L607.955,601.658z"/>
	<path fill="none" d="M733.208,621.451c0.556,0.154,1.11,0.309,1.021,0.283c0.103,0.047-0.404-0.188-0.91-0.42L733.208,621.451z"/>
	<path fill="none" d="M619.094,625.604l0.123,0.13L619.094,625.604z"/>
	<path fill="none" d="M133.414,551.014c1.42,5.398,6.125,7.917,10.048,11.166c-10.421,6.227-25.33,2.057-31.033-9.563
		c-7.213-14.688-6.837-29.936,1.22-44.187c6.573-11.628,18.442-14.11,31.664-7.351c-9.409,8.457-18.284,17.207-18.003,30.93
		c0.143,6.958,0.191,14.02,6.197,19.109L133.414,551.014z"/>
	<path fill="none" d="M133.506,551.119c0,0-0.097-0.105-0.095-0.105C133.414,551.014,133.506,551.119,133.506,551.119z"/>
	<path fill="none" d="M184.396,541.181c0.947-4.478,1.529-7.653,2.306-10.782c0.713-2.867,1.515-6.086,5.581-4.919
		c3.218,0.925,2.815,3.888,2.574,6.384C194.331,537.308,192.532,541.617,184.396,541.181z"/>
	<path fill="none" d="M497.63,525.029c-1.771,4.448-4.254,4.135-7.555,2.26C491.515,522.037,494.134,522.869,497.63,525.029z"/>
	<path fill="none" d="M455.107,530.758c2.519,2.468,1.236,4.005-0.72,6.324C451.955,534.009,453.116,532.451,455.107,530.758z"/>
	<path fill="none" d="M334.134,529.449c1.117,3.312,1.634,6-2.95,6.971C330.012,533.039,331.156,531.045,334.134,529.449z"/>
	<path fill="none" d="M753.281,579.445c-0.813,0.813-1.627,1.627-2.438,2.44C751.654,581.072,752.467,580.26,753.281,579.445z"/>
</g>
</svg>
